# xmcd
#
# Track frame offsets: 
#        150
#        11014
#        20033
#        31154
#        41405
#        53024
#        66678
#        76196
#        85996
#        94858
#        107415
#        116410
#        126839
#        138217
#        148305
#        158021
#        168770
#        177138
#        190412
#        203764
#        215095
#        223363
#        233432
#        243681
#        253493
#        262988
#        272830
#        282080
#        290342
#        302141
#
# Disc length: 4146 seconds
#
# Revision: 0
# Processed by: cddbd v1.5.2PL0 Copyright (c) Steve Scherf et al.
# Submitted via: ExactAudioCopy v0.95b3
#
DISCID=bb10301e
DTITLE=Va  - Rockabilly Gold Volume 02
DYEAR=1900
DGENRE=
TTITLE0=Pat Cupp and the Flying Saucers - Do Me No Wrong
TTITLE1=Jimmy Lloyd - You're Gone Baby
TTITLE2=Jerry Arnold - High Class Baby
TTITLE3=Jimmy Stayton and the Rockabye Band - Hot Hot Mama
TTITLE4=Hop Wilson and his Blue Steel Guitar - Rockin' In The Coconut Ho
TTITLE4=p
TTITLE5=Rocky Davis - Hot Rod Baby
TTITLE6=Ronnie Self - You're So Right For Me
TTITLE7=Jim Oertling and the Bayou Boys - Old Moss Back
TTITLE8=Bob Center - Hey Bo
TTITLE9=Jack Guthrie - Oklahoma Hills
TTITLE10=Luke McDaniel - My Baby Don't Rock
TTITLE11=Jimmy Wages - Mad Man
TTITLE12=Rud Landon and the Rhythm Masters - Six Mile Climb
TTITLE13=Ben Hewitt - My Search
TTITLE14=Andy Starr - One More Time
TTITLE15=Billy Barrix - Almost
TTITLE16=Hollis Champion - Long Gone Lonesome Blues
TTITLE17=The Rockin' Continentals - The 309
TTITLE18=The Prowlers - Rock Me Baby
TTITLE19=Jimmy Myers - Go Cat Go
TTITLE20=Lou Millet - Shorty The Barber
TTITLE21=Rod Willis - The Cat
TTITLE22=Leonard Clark and the Land Of Sky Boys - Come To Your Tommy Now
TTITLE23=Joey Castle - Rock'N'Roll Daddy-O
TTITLE24=Jimmy Williams - Rock A Bye Baby
TTITLE25=Billy Praeger and the Caravans - Do It Bop
TTITLE26=Bill Flagg and his Rockabillies - Guitar Rock
TTITLE27=Don Agee - My Car's Faster Than Your Car
TTITLE28=Jay B. Loyd - I'll Be Alright
TTITLE29=Frank Triolo - Ice Cream Baby
EXTD=
EXTT0=
EXTT1=
EXTT2=
EXTT3=
EXTT4=
EXTT5=
EXTT6=
EXTT7=
EXTT8=
EXTT9=
EXTT10=
EXTT11=
EXTT12=
EXTT13=
EXTT14=
EXTT15=
EXTT16=
EXTT17=
EXTT18=
EXTT19=
EXTT20=
EXTT21=
EXTT22=
EXTT23=
EXTT24=
EXTT25=
EXTT26=
EXTT27=
EXTT28=
EXTT29=
PLAYORDER=
